<svg class="site-logo__image" preserveAspectRatio="xMinYMin meet" xmlns="http://www.w3.org/2000/svg" viewBox="0 0 93.7 16"><title></title><path d="M48.07 3.35H43.4v12.26h-3.48V3.35h-4.68V.39h12.83v2.96zM55.38.39H51.9v15.22h3.48V.39zM93.69 8a8 8 0 0 1-2.33 5.74 8.22 8.22 0 0 1-11.32 0A7.93 7.93 0 0 1 77.69 8 7.89 7.89 0 0 1 80 2.26a8.22 8.22 0 0 1 11.32 0A7.92 7.92 0 0 1 93.69 8M81.17 8a5 5 0 0 0 1.33 3.49 4.41 4.41 0 0 0 6.37 0A5 5 0 0 0 90.19 8a5 5 0 0 0-1.32-3.51 4.41 4.41 0 0 0-6.37 0A5 5 0 0 0 81.17 8M33.52 8a8 8 0 0 1-2.33 5.74 8.22 8.22 0 0 1-11.32 0A7.93 7.93 0 0 1 17.52 8a7.89 7.89 0 0 1 2.35-5.74 8.22 8.22 0 0 1 11.32 0A7.92 7.92 0 0 1 33.52 8M21 8a5 5 0 0 0 1.33 3.49 4.41 4.41 0 0 0 6.37 0A5 5 0 0 0 30 8a5 5 0 0 0-1.3-3.51 4.41 4.41 0 0 0-6.37 0A5 5 0 0 0 21 8M10.44.39v9.5L8.59 7.33l-2.88-4-.62-.85a9.25 9.25 0 0 0-.61-.74A4.94 4.94 0 0 0 2.86.57 4.36 4.36 0 0 0 0 .39v15.22h3.48v-9.5l1.85 2.56 2.88 4 .62.85a7.59 7.59 0 0 0 .61.73 4.92 4.92 0 0 0 1.62 1.18 4.38 4.38 0 0 0 2.86.18V.39h-3.48zm60.17 0v9.5l-1.85-2.56-2.88-4-.62-.85a9.25 9.25 0 0 0-.61-.74A4.94 4.94 0 0 0 63 .57a4.36 4.36 0 0 0-2.82-.18v15.22h3.47v-9.5l1.85 2.56 2.88 4 .62.85a7.59 7.59 0 0 0 .61.73 4.92 4.92 0 0 0 1.62 1.18 4.38 4.38 0 0 0 2.86.18V.39h-3.48z"></path></svg>